<svg viewBox="0 0 320 72" fill="none" xmlns="http://www.w3.org/2000/svg" role="img" aria-label="Mosaic Generator">
  <svg x="0" y="4" width="64" height="64" viewBox="0 0 120 120">
    <rect x="8" y="8" width="16" height="16" rx="4" fill="#fff"/>
    <rect x="8" y="29" width="16" height="16" rx="4" fill="#fff"/>
    <rect x="8" y="50" width="16" height="16" rx="4" fill="#fff"/>
    <rect x="8" y="71" width="16" height="16" rx="4" fill="#fff"/>
    <rect x="8" y="92" width="16" height="16" rx="4" fill="#fff"/>
    <rect x="92" y="8" width="16" height="16" rx="4" fill="#fff"/>
    <rect x="92" y="29" width="16" height="16" rx="4" fill="#fff"/>
    <rect x="92" y="50" width="16" height="16" rx="4" fill="#fff"/>
    <rect x="92" y="71" width="16" height="16" rx="4" fill="#fff"/>
    <rect x="92" y="92" width="16" height="16" rx="4" fill="#fff"/>
    <rect x="29" y="29" width="16" height="16" rx="4" fill="#2563EB"/>
    <rect x="71" y="29" width="16" height="16" rx="4" fill="#2563EB"/>
    <rect x="50" y="50" width="16" height="16" rx="4" fill="#2563EB"/>
  </svg>
  <text x="86" y="36" font-family="'Archivo Expanded', Archivo, sans-serif" font-size="36" font-weight="800" letter-spacing="-0.02em" fill="#fff">Mosaic</text>
  <text x="86" y="58" font-family="Archivo, sans-serif" font-size="17" font-weight="500" letter-spacing="0.12em" fill="rgba(255,255,255,0.45)">GENERATOR</text>
</svg>
